<svg width="409" height="404" viewBox="0 0 409 404" fill="none" xmlns="http://www.w3.org/2000/svg">
<g filter="url(#filter0_f)">
<path d="M272.571 445C268.446 445 264.754 442.619 263.017 439.371L214.811 353.637L212.857 347.575L214.811 341.513L263.017 255.779C264.754 252.532 268.446 250.15 272.571 250.15L370.286 250.15C374.411 250.15 378.103 252.532 379.84 255.779L428.046 341.513L430 347.575L428.046 353.637L379.84 439.371C378.103 442.619 374.411 445 370.286 445H272.571ZM272.571 206.85C268.446 206.85 264.754 204.469 263.017 201.221L214.811 115.487L212.857 109.425L214.811 103.363L263.017 17.629C264.754 14.3815 268.446 12 272.571 12H370.286C374.411 12 378.103 14.3815 379.84 17.629L428.046 103.363L430 109.425L428.046 115.487L379.84 201.221C378.103 204.469 374.411 206.85 370.286 206.85L272.571 206.85ZM71.7143 325.925C67.5886 325.925 63.8972 323.543 62.16 320.296L13.9543 234.562L12 228.5L13.9543 222.438L62.16 136.704C63.8972 133.457 67.5886 131.075 71.7143 131.075H169.429C173.554 131.075 177.246 133.457 178.983 136.704L227.189 222.438L229.143 228.5L227.189 234.562L178.983 320.296C177.246 323.543 173.554 325.925 169.429 325.925L71.7143 325.925Z" fill="url(#paint0_linear)" fill-opacity="0.05"/>
</g>
<defs>
<filter id="filter0_f" x="0" y="0" width="442" height="457" filterUnits="userSpaceOnUse" color-interpolation-filters="sRGB">
<feFlood flood-opacity="0" result="BackgroundImageFix"/>
<feBlend mode="normal" in="SourceGraphic" in2="BackgroundImageFix" result="shape"/>
<feGaussianBlur stdDeviation="6" result="effect1_foregroundBlur"/>
</filter>
<linearGradient id="paint0_linear" x1="221" y1="445" x2="221" y2="12" gradientUnits="userSpaceOnUse">
<stop stop-color="#1CE5D1"/>
<stop offset="1" stop-color="#7A36E4"/>
</linearGradient>
</defs>
</svg>
