<svg width="608" height="547" viewBox="0 0 608 547" fill="none" xmlns="http://www.w3.org/2000/svg">
<g filter="url(#filter0_f)">
<path d="M465.703 92.3371C467.766 95.9101 467.549 100.298 465.606 103.426L415.461 188.04L411.188 192.764L404.961 194.102L306.61 195.222C302.929 195.341 299.021 193.335 296.958 189.762L248.101 105.139C246.038 101.566 246.255 97.1785 248.199 94.0503L298.344 9.43595L302.616 4.71249L308.843 3.37395L407.194 2.25433C410.875 2.13499 414.783 4.14111 416.846 7.71408L465.703 92.3371ZM259.459 211.412C261.522 214.985 261.305 219.373 259.362 222.501L209.217 307.115L204.944 311.839L198.717 313.177L100.366 314.297C96.6853 314.416 92.7772 312.41 90.7143 308.837L41.8572 224.214C39.7943 220.641 40.0111 216.253 41.9549 213.125L92.0998 128.511L96.3726 123.787L102.6 122.449L200.95 121.329C204.631 121.21 208.539 123.216 210.602 126.789L259.459 211.412ZM463.01 325.822C465.073 329.395 464.856 333.783 462.912 336.911L412.767 421.525L408.494 426.249L402.268 427.587L303.917 428.707C300.236 428.826 296.328 426.82 294.265 423.247L245.408 338.624C243.345 335.051 243.562 330.663 245.505 327.535L295.65 242.921L299.923 238.197L306.15 236.859L404.501 235.739C408.182 235.62 412.09 237.626 414.153 241.199L463.01 325.822Z" fill="url(#paint0_linear)" fill-opacity="0.05"/>
</g>
<defs>
<filter id="filter0_f" x="0" y="-56" width="607.989" height="602.499" filterUnits="userSpaceOnUse" color-interpolation-filters="sRGB">
<feFlood flood-opacity="0" result="BackgroundImageFix"/>
<feBlend mode="normal" in="SourceGraphic" in2="BackgroundImageFix" result="shape"/>
<feGaussianBlur stdDeviation="6" result="effect1_foregroundBlur"/>
</filter>
<linearGradient id="paint0_linear" x1="491.489" y1="136.999" x2="116.5" y2="353.499" gradientUnits="userSpaceOnUse">
<stop stop-color="#1CE5D1"/>
<stop offset="1" stop-color="#7A36E4"/>
</linearGradient>
</defs>
</svg>
