<svg width="140" height="30" viewBox="0 0 140 30" fill="none" xmlns="http://www.w3.org/2000/svg">
<g clip-path="url(#clip0)">
<path d="M28.3443 30.0001C29.2586 30.0001 30 29.2588 30 28.3444V1.65574C30 0.741211 29.2586 0 28.3443 0H1.65574C0.741094 0 0 0.741211 0 1.65574V28.3444C0 29.2588 0.741094 30.0001 1.65574 30.0001H28.3443Z" fill="#395185"/>
<path d="M20.6994 30.0001V18.3825H24.5991L25.1829 13.855H20.6994V10.9642C20.6994 9.65333 21.0635 8.76001 22.9433 8.76001L25.3409 8.75896V4.70954C24.926 4.65435 23.5029 4.53107 21.8473 4.53107C18.3905 4.53107 16.024 6.64103 16.024 10.5159V13.855H12.1144V18.3825H16.024V30.0001H20.6994Z" fill="white"/>
</g>
<g clip-path="url(#clip1)">
<path d="M62.8374 25.6938L63.3222 25.9362C65.3423 27.1481 67.6046 27.7137 69.8669 27.7137C76.9772 27.7137 82.7946 21.8963 82.7946 14.7861C82.7946 11.3926 81.421 8.07983 78.9971 5.65586C76.5732 3.23188 73.3412 1.85837 69.8669 1.85837C62.7567 1.85837 56.9391 7.67582 57.02 14.8669C57.02 17.2908 57.7472 19.634 58.9591 21.6538L59.2823 22.1387L57.9896 26.9058L62.8374 25.6938Z" fill="#00E676"/>
<path d="M80.3706 4.36309C77.6235 1.53521 73.826 0 69.9476 0C61.7063 0 55.0808 6.70622 55.1616 14.8668C55.1616 17.4524 55.8888 19.9572 57.1008 22.2195L55 29.8953L62.8374 27.8753C65.019 29.0874 67.4428 29.653 69.8669 29.653C78.0275 29.653 84.653 22.9466 84.653 14.7862C84.653 10.827 83.1178 7.11023 80.3707 4.36309H80.3706ZM69.9476 27.1483C67.7661 27.1483 65.5846 26.5828 63.7262 25.4516L63.2414 25.2092L58.5552 26.4211L59.7671 21.8157L59.4439 21.3308C55.8888 15.5942 57.5856 7.999 63.403 4.44382C69.2205 0.888765 76.7347 2.58556 80.2899 8.40301C83.8449 14.2205 82.1481 21.7347 76.3308 25.2899C74.4723 26.5018 72.21 27.1481 69.9476 27.1481V27.1483ZM77.0579 18.1798L76.1691 17.7758C76.1691 17.7758 74.8764 17.2102 74.0684 16.8061C73.9876 16.8061 73.9068 16.7253 73.826 16.7253C73.5836 16.7253 73.422 16.8061 73.2604 16.887C73.2604 16.887 73.1797 16.9677 72.0485 18.2605C71.9676 18.4221 71.806 18.5029 71.6444 18.5029H71.5636C71.4829 18.5029 71.3213 18.4221 71.2404 18.3414L70.8364 18.1798C69.9476 17.7758 69.1397 17.2909 68.4933 16.6446C68.3317 16.483 68.0893 16.3214 67.9277 16.1598C67.3621 15.5942 66.7965 14.9478 66.3926 14.2206L66.3117 14.059C66.231 13.9781 66.231 13.8974 66.1502 13.7358C66.1502 13.5742 66.1502 13.4127 66.231 13.3318C66.231 13.3318 66.5542 12.9278 66.7965 12.6855C66.9582 12.5238 67.0389 12.2815 67.2005 12.1199C67.3621 11.8775 67.4429 11.5543 67.3621 11.3119C67.2814 10.9078 66.3117 8.72629 66.0694 8.24154C65.9077 7.99911 65.7463 7.91838 65.5038 7.83753H64.6151C64.4534 7.83753 64.2919 7.91838 64.1302 7.91838L64.0493 7.99911C63.8878 8.07996 63.7262 8.24154 63.5646 8.32228C63.403 8.48398 63.3222 8.64544 63.1606 8.80714C62.595 9.53432 62.2718 10.4231 62.2718 11.3119C62.2718 11.9582 62.4334 12.6046 62.6758 13.1702L62.7567 13.4127C63.4839 14.9478 64.4534 16.3214 65.7463 17.5333L66.0694 17.8565C66.3117 18.0989 66.5542 18.2605 66.7158 18.5028C68.4125 19.9573 70.3517 21.0076 72.5332 21.5732C72.7756 21.654 73.0988 21.654 73.3412 21.7348H74.1492C74.5532 21.7348 75.0379 21.5732 75.3612 21.4117C75.6035 21.2501 75.7651 21.2501 75.9267 21.0885L76.0884 20.9268C76.25 20.7652 76.4115 20.6845 76.5731 20.5229C76.7347 20.3613 76.8963 20.1997 76.9771 20.038C77.1387 19.7149 77.2195 19.3108 77.3003 18.9069V18.3414C77.3003 18.3414 77.2195 18.2605 77.0579 18.1798Z" fill="white"/>
</g>
<g clip-path="url(#clip2)">
<path d="M139.028 8.13375C138.858 7.52779 138.527 6.97919 138.07 6.54625C137.6 6.10001 137.025 5.7808 136.398 5.61875C134.05 5 124.645 5 124.645 5C120.724 4.95539 116.804 5.1516 112.908 5.5875C112.28 5.76152 111.706 6.08786 111.235 6.5375C110.773 6.9825 110.438 7.53125 110.263 8.1325C109.842 10.3972 109.638 12.6967 109.653 15C109.638 17.3013 109.841 19.6 110.263 21.8675C110.434 22.4663 110.768 23.0125 111.231 23.4538C111.695 23.895 112.273 24.2138 112.908 24.3825C115.286 25 124.645 25 124.645 25C128.571 25.0447 132.496 24.8485 136.398 24.4125C137.025 24.2505 137.6 23.9312 138.07 23.485C138.533 23.0438 138.861 22.495 139.026 21.8975C139.458 19.6337 139.667 17.3332 139.653 15.0288C139.685 12.7145 139.475 10.4032 139.028 8.1325V8.13375ZM121.655 19.28V10.7213L129.48 15.0013L121.655 19.28Z" fill="#706F6F"/>
</g>
<defs>
<clipPath id="clip0">
<rect width="30" height="30" fill="white"/>
</clipPath>
<clipPath id="clip1">
<rect width="29.6525" height="30" fill="white" transform="translate(55)"/>
</clipPath>
<clipPath id="clip2">
<rect width="30" height="30" fill="white" transform="translate(109.653)"/>
</clipPath>
</defs>
</svg>
