<svg width="676" height="377" viewBox="0 0 676 377" fill="none" xmlns="http://www.w3.org/2000/svg">
<path d="M95.494 322.131C80.2829 333.483 75.9719 353.457 75.9719 353.457C75.9719 353.457 96.3229 355.026 111.534 343.673C126.745 332.321 131.056 312.347 131.056 312.347C131.056 312.347 110.705 310.778 95.494 322.131Z" fill="#6965C1"/>
<path d="M101.83 327.461C94.5198 344.989 76.2106 354.021 76.2106 354.021C76.2106 354.021 69.7542 334.635 77.0648 317.107C84.3754 299.579 102.685 290.547 102.685 290.547C102.685 290.547 109.141 309.933 101.83 327.461Z" fill="#6965C1"/>
<path d="M539.466 276.79C537.85 265.89 537.423 254.847 538.193 243.855L539.466 225.663C532.45 239.641 534.035 258.039 539.466 276.79V276.79Z" fill="#CACACA"/>
<path d="M544.938 279.833C544.16 273.329 543.955 266.769 544.325 260.229L544.938 249.4C541.562 257.721 542.325 268.672 544.938 279.833Z" fill="#CACACA"/>
<path d="M569.258 293.225V299.312C569.256 299.795 569.063 300.258 568.721 300.6C568.38 300.942 567.918 301.135 567.435 301.138H564.395C564.315 301.137 564.236 301.153 564.162 301.183C564.088 301.214 564.021 301.259 563.964 301.315C563.908 301.372 563.863 301.439 563.833 301.513C563.802 301.587 563.787 301.666 563.787 301.746V351.656C563.784 352.14 563.591 352.603 563.25 352.945C562.908 353.286 562.446 353.48 561.963 353.482H524.879C524.395 353.482 523.931 353.289 523.589 352.947C523.247 352.605 523.055 352.14 523.055 351.656V301.746C523.054 301.585 522.99 301.43 522.876 301.316C522.762 301.202 522.608 301.138 522.447 301.138H518.799C518.316 301.137 517.852 300.945 517.51 300.602C517.168 300.26 516.976 299.796 516.975 299.312V293.225C516.975 292.985 517.022 292.748 517.113 292.526C517.205 292.304 517.339 292.103 517.509 291.933C517.678 291.764 517.879 291.629 518.101 291.537C518.322 291.446 518.56 291.399 518.799 291.399H567.435C567.918 291.401 568.381 291.593 568.723 291.935C569.064 292.278 569.257 292.741 569.258 293.225Z" fill="#F2F2F2"/>
<path d="M563.841 302.416H523.109V304.242H563.841V302.416Z" fill="#E6E6E6"/>
<path d="M563.787 329.285C550.157 334.932 536.378 334.994 522.447 329.285V316.421C535.859 311.911 550.375 311.911 563.787 316.421V329.285Z" fill="#E6E6E6"/>
<path d="M335.478 132.595C365.905 132.595 390.571 107.9 390.571 77.4377C390.571 46.9751 365.905 22.2803 335.478 22.2803C305.051 22.2803 280.385 46.9751 280.385 77.4377C280.385 107.9 305.051 132.595 335.478 132.595Z" fill="#FEB8B8"/>
<path d="M386.935 29.8524C378.699 16.4614 365.805 6.59406 350.738 2.14984L343.974 7.09127V0.674971C340.355 0.120468 336.693 -0.0931427 333.034 0.0369489L327.199 5.32291V0.476109C318.559 1.55098 310.236 4.40639 302.754 8.8623C295.271 13.3182 288.792 19.2779 283.725 26.3657C271.053 44.6555 268.914 70.1005 281.377 88.537C284.799 78.0098 288.951 68.1323 292.373 57.6061C295.063 57.9731 297.788 57.9863 300.481 57.6454L304.643 47.921L305.806 57.2339C318.709 56.1089 337.846 53.6376 350.077 51.3738L348.887 44.229L356.003 50.1658C359.751 49.3024 361.976 48.5187 361.792 47.92C370.889 62.6029 382.022 71.9806 391.118 86.6635C394.573 65.9598 398.55 48.7451 386.935 29.8524Z" fill="#2F2E41"/>
<path d="M453.967 219.277C452.073 207.866 450.119 196.236 444.821 185.957C441.34 179.223 435.814 172.807 428.364 171.476C426.897 171.345 425.454 171.011 424.079 170.483C421.896 169.43 392.562 152.665 387.9 149.745C383.897 147.238 377.578 142.597 374.391 142.597C371.186 142.526 358.894 145.39 310.919 141.636C310.919 141.636 297.74 146.837 287.542 153.143C287.387 153.041 237.748 179.729 235.883 179.658C232.352 179.509 229.069 181.773 227.044 184.624C225.02 187.475 224.071 191.004 223.076 194.417C233.918 218.59 243.838 242.794 254.681 266.968C255.189 267.878 255.459 268.902 255.466 269.945C255.248 271.027 254.786 272.045 254.117 272.922C248.799 281.474 248.968 292.23 249.549 302.281C250.131 312.331 250.849 322.948 246.363 331.957C245.143 334.43 243.556 336.694 242.395 339.167C239.677 344.769 238.695 362.686 240.282 368.704L439.18 374.409C434.904 362.64 453.967 219.277 453.967 219.277Z" fill="#109088"/>
<path d="M205.884 268.039C205.487 270.913 205.447 273.826 205.765 276.71L208.616 317.698C208.883 321.561 209.147 325.415 209.509 329.268C210.193 336.747 211.215 344.166 212.483 351.575C212.511 352.626 212.956 353.624 213.718 354.348C214.481 355.072 215.499 355.464 216.55 355.438C229.098 358.096 242.064 357.99 254.87 357.266C274.413 356.174 324.411 354.107 327.466 350.135C330.52 346.162 328.74 339.736 324.757 336.524C320.774 333.311 254.795 325.48 254.795 325.48C255.44 320.365 257.384 315.548 259.229 310.692C262.543 302.078 265.638 293.182 265.698 283.956C265.757 274.729 262.285 265.028 254.736 259.742C248.525 255.402 240.53 254.597 232.962 254.776C227.456 254.934 217.943 253.614 212.914 255.769C208.934 257.524 206.627 264.138 205.884 268.039Z" fill="#FEB8B8"/>
<path d="M222.503 195.153C221.536 196.165 220.787 197.365 220.301 198.679C212.282 216.771 207.546 236.149 206.314 255.904C206.336 256.868 206.114 257.821 205.669 258.675C205.231 259.244 204.743 259.772 204.211 260.254C203.747 260.805 203.396 261.441 203.178 262.127C202.96 262.813 202.879 263.536 202.94 264.253C203.001 264.971 203.202 265.669 203.533 266.309C203.863 266.948 204.316 267.516 204.866 267.98C204.956 268.056 205.049 268.13 205.144 268.2C206.78 265.116 210.698 264.108 214.181 263.84C230.856 262.519 247.145 270.286 263.87 269.7C262.69 265.618 260.992 261.695 260.03 257.564C255.774 239.22 266.389 219.248 259.881 201.579C258.581 198.044 256.409 194.568 252.987 193.018C251.57 192.446 250.087 192.053 248.573 191.849C244.347 191.084 235.934 187.816 231.848 189.127C230.34 189.615 229.745 191.034 228.495 191.892C226.596 193.107 224.077 193.553 222.503 195.153Z" fill="#109088"/>
<path d="M454.086 255.769C449.057 253.614 439.544 254.934 434.038 254.776C426.47 254.597 418.475 255.402 412.264 259.742C404.715 265.028 401.243 274.729 401.302 283.956C401.362 293.182 404.457 302.078 407.771 310.692C409.615 315.548 411.56 320.365 412.205 325.48C412.205 325.48 346.225 333.311 342.243 336.524C338.26 339.736 336.48 346.162 339.534 350.135C342.589 354.108 437.902 358.096 450.45 355.438C451.501 355.464 452.519 355.072 453.282 354.348C454.044 353.624 454.489 352.626 454.517 351.575C455.785 344.166 456.807 336.747 457.491 329.269C457.853 325.415 458.117 321.561 458.384 317.698L461.235 276.71C461.553 273.826 461.513 270.914 461.116 268.039C460.373 264.138 458.066 257.524 454.086 255.769Z" fill="#FEB8B8"/>
<path d="M438.505 191.892C437.255 191.034 436.66 189.614 435.152 189.127C431.066 187.816 422.653 191.084 418.427 191.849C416.913 192.053 415.43 192.446 414.013 193.018C410.591 194.568 408.419 198.044 407.119 201.579C400.611 219.248 411.226 239.22 406.97 257.564C406.008 261.695 404.31 265.618 403.13 269.7C419.855 270.286 436.144 262.519 452.819 263.84C456.302 264.108 460.22 265.116 461.857 268.2C461.951 268.13 462.044 268.056 462.134 267.98C462.684 267.516 463.137 266.948 463.467 266.309C463.798 265.669 463.999 264.971 464.06 264.253C464.121 263.536 464.04 262.813 463.822 262.127C463.604 261.441 463.253 260.805 462.789 260.254C462.257 259.772 461.769 259.244 461.331 258.675C460.886 257.821 460.664 256.868 460.686 255.904C459.454 236.149 454.718 216.771 446.699 198.679C446.213 197.365 445.464 196.165 444.497 195.153C442.923 193.553 440.404 193.107 438.505 191.892Z" fill="#109088"/>
<path d="M319.162 357.395C327.374 357.395 334.031 350.73 334.031 342.508C334.031 334.286 327.374 327.621 319.162 327.621C310.949 327.621 304.292 334.286 304.292 342.508C304.292 350.73 310.949 357.395 319.162 357.395Z" fill="#FEB8B8"/>
<path d="M352.087 357.395C360.299 357.395 366.956 350.73 366.956 342.508C366.956 334.286 360.299 327.621 352.087 327.621C343.875 327.621 337.217 334.286 337.217 342.508C337.217 350.73 343.875 357.395 352.087 357.395Z" fill="#FEB8B8"/>
<path d="M443.873 376.054H239.588C237.203 376.051 234.916 375.102 233.23 373.413C231.543 371.725 230.594 369.436 230.592 367.048V242.968C230.594 240.58 231.543 238.291 233.23 236.603C234.916 234.914 237.203 233.965 239.588 233.962H443.873C446.258 233.965 448.545 234.914 450.231 236.603C451.918 238.291 452.866 240.58 452.869 242.968V367.048C452.866 369.436 451.918 371.725 450.231 373.413C448.545 375.102 446.258 376.051 443.873 376.054Z" fill="#3F3D56"/>
<path d="M341.235 310.967C344.522 310.967 347.187 308.299 347.187 305.008C347.187 301.717 344.522 299.049 341.235 299.049C337.948 299.049 335.283 301.717 335.283 305.008C335.283 308.299 337.948 310.967 341.235 310.967Z" fill="white"/>
<path d="M676 351.027H-9V372.101H31.517V377H635.498V372.101H676V351.027Z" fill="#6965C1"/>
<path d="M284.817 97.996C275.965 97.996 268.788 90.2277 268.788 80.645V71.9695C268.788 62.3868 275.965 54.6186 284.817 54.6186V97.996H284.817Z" fill="#109088"/>
<path d="M387.122 54.6187C395.974 54.6187 403.15 62.3869 403.15 71.9696V80.6451C403.15 90.2278 395.974 97.996 387.122 97.996V54.6187Z" fill="#109088"/>
<path d="M395.521 73.3329H392.978C392.978 38.4194 366.739 10.0151 334.486 10.0151C302.233 10.0151 275.994 38.4194 275.994 73.3329H273.451C273.451 36.9013 300.831 7.26215 334.486 7.26215C368.141 7.26216 395.521 36.9014 395.521 73.3329Z" fill="#109088"/>
</svg>
